<?xml version="1.0" standalone="no"?>
<!DOCTYPE svg PUBLIC "-//W3C//DTD SVG 20010904//EN"
 "http://www.w3.org/TR/2001/REC-SVG-20010904/DTD/svg10.dtd">
<svg version="1.0" xmlns="http://www.w3.org/2000/svg"
 width="473.000000pt" height="120.000000pt" viewBox="0 0 473.000000 120.000000"
 preserveAspectRatio="xMidYMid meet">

<g transform="translate(0.000000,120.000000) scale(0.100000,-0.100000)"
fill="#000000" stroke="none">
<path d="M12 1188 c-17 -17 -17 -1159 0 -1176 17 -17 4689 -17 4706 0 17 17
17 1159 0 1176 -17 17 -4689 17 -4706 0z m4628 -588 l0 -510 -2275 0 -2275 0
0 510 0 510 2275 0 2275 0 0 -510z"/>
<path d="M820 630 l0 -340 85 0 85 0 0 149 c0 137 2 151 23 181 39 59 122 58
138 0 4 -14 7 -94 8 -177 l1 -153 80 0 80 0 0 185 c0 205 -5 229 -59 280 -30
28 -37 30 -110 30 -68 0 -83 -3 -119 -28 l-42 -27 0 120 0 120 -85 0 -85 0 0
-340z"/>
<path d="M3790 905 l0 -65 85 0 85 0 0 65 0 65 -85 0 -85 0 0 -65z"/>
<path d="M170 621 l0 -331 90 0 90 0 0 114 0 114 108 4 c85 3 116 8 148 26 58
30 90 72 105 136 22 101 -17 192 -105 239 -38 20 -57 22 -238 25 l-198 4 0
-331z m336 178 c18 -17 24 -33 24 -64 0 -61 -30 -86 -114 -92 l-66 -6 0 98 0
98 66 -6 c50 -4 71 -10 90 -28z"/>
<path d="M3140 621 l0 -331 90 0 90 0 0 114 0 114 108 4 c85 3 116 8 148 26
58 30 90 72 105 136 22 101 -17 192 -105 239 -38 20 -57 22 -238 25 l-198 4 0
-331z m336 178 c18 -17 24 -33 24 -64 0 -61 -30 -86 -114 -92 l-66 -6 0 98 0
98 66 -6 c50 -4 71 -10 90 -28z"/>
<path d="M2100 850 l0 -70 -40 0 -40 0 0 -55 0 -55 40 0 40 0 0 -140 c0 -158
8 -187 63 -220 26 -17 51 -20 140 -20 l107 0 0 54 0 53 -66 6 c-40 3 -70 10
-75 18 -5 8 -9 67 -9 132 l0 117 80 0 80 0 0 55 0 55 -80 0 -80 0 0 70 0 70
-80 0 -80 0 0 -70z"/>
<path d="M1565 767 c-96 -47 -137 -116 -137 -232 0 -116 41 -186 137 -231 71
-34 198 -34 271 0 90 42 134 117 134 231 0 75 -16 125 -52 170 -49 58 -99 78
-208 82 -84 4 -101 1 -145 -20z m193 -110 c58 -46 56 -198 -3 -247 -28 -23
-94 -16 -123 14 -25 24 -27 33 -27 110 0 75 3 87 24 110 33 35 93 41 129 13z"/>
<path d="M2615 767 c-96 -47 -137 -116 -137 -232 0 -116 41 -186 137 -231 71
-34 198 -34 271 0 90 42 134 117 134 231 0 75 -16 125 -52 170 -49 58 -99 78
-208 82 -84 4 -101 1 -145 -20z m193 -110 c58 -46 56 -198 -3 -247 -28 -23
-94 -16 -123 14 -25 24 -27 33 -27 110 0 75 3 87 24 110 33 35 93 41 129 13z"/>
<path d="M4240 781 c-74 -24 -129 -73 -157 -140 -20 -47 -19 -167 2 -216 20
-50 59 -91 110 -118 57 -30 224 -35 315 -10 l65 18 3 63 c3 62 3 64 -20 57
-13 -4 -34 -13 -48 -20 -43 -22 -141 -35 -183 -26 -46 11 -72 33 -86 72 l-10
29 186 0 186 0 -5 70 c-7 90 -42 151 -112 195 -44 27 -59 30 -135 32 -47 1
-97 -1 -111 -6z m168 -128 c12 -13 22 -33 22 -44 0 -17 -8 -19 -95 -19 -84 0
-95 2 -95 18 1 27 32 62 65 71 41 12 76 3 103 -26z"/>
<path d="M3790 535 l0 -245 85 0 85 0 0 245 0 245 -85 0 -85 0 0 -245z"/>
</g>
</svg>
